<svg id="Ebene_1" data-name="Ebene 1" xmlns="http://www.w3.org/2000/svg" width="375" height="152" viewBox="0 0 375 152"><g id="Gruppe_635" data-name="Gruppe 635"><path id="Pfad_3055" data-name="Pfad 3055" d="M47.3294,26.72142c0-13.94661-5.39995-23.20614-13.48981-23.20614H27.27266v46.413h6.56888c8.09389,0,13.48981-9.25952,13.48981-23.20711m26.27364,0c0,14.65111-13.83984,25.55017-32.02356,25.55017H27.27266V83.21311H1.473V1.17125H41.58448c18.18378,0,32.02356,10.901,32.02356,25.55115"/><path id="Pfad_3056" data-name="Pfad 3056" d="M141.40412,42.19063c0-24.02334-7.5079-39.84733-18.76873-39.84733s-18.76477,15.824-18.76477,39.84733,7.50692,39.84953,18.76477,39.84953,18.76873-15.824,18.76873-39.84953m-63.81012,0C77.594,18.16729,97.06474,0,122.63441,0s45.0384,18.167,45.0384,42.19063-19.46874,42.19063-45.0384,42.19063S77.594,66.21617,77.594,42.19063"/><path id="Pfad_3057" data-name="Pfad 3057" d="M172.02072,60.8275h2.58c0,11.25082,10.90787,19.57313,24.86868,19.57313,10.08385,0,17.47377-4.33557,17.47377-11.25375,0-7.38191-8.32789-11.01493-17.59278-15.11753-12.55184-5.3955-26.50764-11.133-26.50764-27.54244,0-16.28675,13.95678-26.48642,32.84154-26.48642,16.6548,0,29.67459,9.3754,29.67459,22.2677h-2.58c0-10.9-9.85387-18.51588-21.93372-18.51588-10.32286,0-17.82874,5.03885-17.82874,12.5398,0,8.43817,9.14788,11.95215,19.23576,16.057,12.43282,4.923,26.27162,10.4324,26.27162,25.89974,0,15.00264-13.36981,26.13563-33.77756,26.13563-17.94776,0-32.72558-10.19162-32.72558-23.55668"/><path id="Pfad_3058" data-name="Pfad 3058" d="M304.568,3.12058H282.39925V82.81744H256.59259V3.12058H234.42492V.77557h70.143Z"/><path id="Pfad_3059" data-name="Pfad 3059" d="M25.18869,129.55629a.94253.94253,0,0,1-.942.94112H16.67177a.94121.94121,0,0,1-.062-1.88054c1.327-.08294,1.327-.16783,1.327-1.22605V115.51161l-5.12694,13.73073a1.14816,1.14816,0,0,1-1.076.75329h-.632a1.15293,1.15293,0,0,1-1.074-.74744L4.736,115.45941v7.59389a39.28209,39.28209,0,0,0,.136,4.31337c.086.99918.389,1.0992.808,1.128l1.014.09391a.95119.95119,0,0,1-.088,1.89835H1.02593a.94157.94157,0,0,1-.942-.93917v-.04586a.94558.94558,0,0,1,.81-.93113l.509-.072c.331-.042.583-.15392.668-1.12115a38.27988,38.27988,0,0,0,.138-4.32337v-9.57909c0-1.05724,0-1.14116-1.327-1.22605a.94121.94121,0,0,1,.06-1.88055H7.22781a1.149,1.149,0,0,1,1.09.79135c.21.63644.529,1.36778.836,2.07521.233.53057.451,1.03114.625,1.49877l3,7.7227,2.2-5.68627c.541-1.47975,1.175-3.28028,1.682-4.72807l.319-.90527a1.14806,1.14806,0,0,1,1.082-.76549h6.19193a.94121.94121,0,0,1,.06,1.88055c-1.327.08391-1.327.16783-1.327,1.226v13.90954c0,1.056,0,1.14213,1.327,1.22605a.9405.9405,0,0,1,.882.93722"/><path id="Pfad_3060" data-name="Pfad 3060" d="M39.02551,121.03615l-1.56095-5.13692-1.607,5.13472a.353.353,0,0,0,.337.45861H38.6825a.35264.35264,0,0,0,.339-.45666m9.70885,8.5221a.93659.93659,0,0,1-.93406.93917H40.04149a.93856.93856,0,0,1-.938-.93527V129.526a.93647.93647,0,0,1,.842-.93015l1.136-.1188c.163-.0139.2-.05391.2-.05586s.05-.09-.064-.42763l-1.367-4.36435H35.01152c-.076.24272-.15.48349-.224.72133-.391,1.26-.762,2.44893-1.022,3.63107-.084.36664-.06.46056-.05.48056a.46049.46049,0,0,0,.2.04391l1.167.1a.95.95,0,1,1-.078,1.89835H29.56464a.94718.94718,0,0,1-.094-1.88835c.91-.09,1.084-.23175,1.439-1.16116.447-1.136.994-2.73385,1.628-4.58634.311-.89917.636-1.85249.968-2.80582l2.77-8.04348-.343-1.12408a.39969.39969,0,0,1,.381-.51057h3.786a1.14486,1.14486,0,0,1,1.092.79135l5.33794,16.40652c.267.84428.453.99113,1.319,1.04919a.94047.94047,0,0,1,.88.93332"/><path id="Pfad_3061" data-name="Pfad 3061" d="M61.05423,112.45527c-1.391,0-1.391.24492-1.391.69352v6.38883h1c2.265,0,3.31892-1.14409,3.31892-3.59716,0-2.3111-.984-3.48324-2.92794-3.48324m10.17986,17.062a.97665.97665,0,0,1-.974.97918h-1.491c-3.093,0-4.452-.7994-5.18493-3.06854a27.67748,27.67748,0,0,1-.7-2.93754c-.072-.37079-.14-.71231-.207-1.00528-.295-1.33-.912-1.87054-2.129-1.87054h-.888v5.77823c0,1.056,0,1.14214,1.327,1.226a.94021.94021,0,0,1-.06,1.87835H53.12734a.94021.94021,0,0,1-.06-1.87835c1.325-.08489,1.325-.16978,1.325-1.226V113.483c0-1.055,0-1.14213-1.325-1.22605a.9402.9402,0,0,1,.06-1.87737h9.16083c2.64,0,4.43591.49252,5.65391,1.55074a4.90894,4.90894,0,0,1,1.53495,3.84476,4.98191,4.98191,0,0,1-3.77595,4.71807c2.02.95917,2.5,2.69774,2.846,4.68318a5.34233,5.34233,0,0,0,1.261,2.9695,1.75768,1.75768,0,0,0,.729.44056.96924.96924,0,0,1,.7.93332"/><path id="Pfad_3062" data-name="Pfad 3062" d="M84.6829,129.55626a.9416.9416,0,0,1-.942.94113H75.941a.9412.9412,0,0,1-.058-1.88054c1.325-.08392,1.325-.17076,1.325-1.22605V113.48224c0-1.05505,0-1.14214-1.325-1.22605a.94123.94123,0,0,1,.058-1.88152H83.7409a.94124.94124,0,1,1,.06,1.88152c-1.325.08391-1.325.17076-1.325,1.22605V127.3908c0,1.055,0,1.14213,1.325,1.22605a.9406.9406,0,0,1,.882.93917"/><path id="Pfad_3063" data-name="Pfad 3063" d="M98.54971,121.03615l-1.563-5.13692-1.608,5.13472a.35247.35247,0,0,0,.054.31469.34617.34617,0,0,0,.285.1449h2.49093a.35565.35565,0,0,0,.339-.45666m9.70885,8.52209a.9366.9366,0,0,1-.93407.93918H99.56569a.93664.93664,0,0,1-.936-.93528V129.527a.93451.93451,0,0,1,.84-.93014l1.139-.1188c.162-.01391.2-.05391.2-.05587s.05-.09-.062-.42762l-1.369-4.36436H94.54079c-.076.24272-.15.48349-.225.72134-.391,1.25995-.762,2.44892-1.024,3.63106-.084.36665-.06.46056-.048.48057a.45723.45723,0,0,0,.2.04391l1.169.1a.95.95,0,1,1-.08,1.89835H89.09494a.94718.94718,0,0,1-.094-1.88835c.908-.09,1.084-.23174,1.437-1.16116.449-1.136.994-2.73385,1.63-4.58634.309-.89917.633-1.85249.966-2.80581l2.77193-8.04348-.343-1.12408a.39041.39041,0,0,1,.06-.35079.4.4,0,0,1,.319-.15978h3.786a1.14263,1.14263,0,0,1,1.092.79135l5.33794,16.40651c.268.84429.453.99114,1.321,1.0492a.9426.9426,0,0,1,.88.93332"/><path id="Pfad_3064" data-name="Pfad 3064" d="M143.04713,115.65066a.77162.77162,0,0,1-.772.77036,1.36277,1.36277,0,0,1-1.285-.90917c-.8-2.25523-1.83-3.05658-3.92793-3.05658h-.722V127.443c0,.99114.186,1.05115.718,1.0831l1.088.07782a.94521.94521,0,0,1-.068,1.88835h-8.74091a.94521.94521,0,0,1-.068-1.88835l1.086-.07586c.535-.03391.718-.09392.718-1.08506V112.45527h-.71514c-2.1,0-3.129.79939-3.931,3.05658a1.36506,1.36506,0,0,1-1.283.90917.77181.77181,0,0,1-.774-.76939v-.001a.29613.29613,0,0,1,.006-.061l.635-4.09675a1.15048,1.15048,0,0,1,1.149-1.11408h15.09977a1.15155,1.15155,0,0,1,1.148,1.11408l.635,4.09675v.061"/><path id="Pfad_3065" data-name="Pfad 3065" d="M155.67494,112.45527c-1.391,0-1.391.24492-1.391.69352v6.38883h1c2.265,0,3.31892-1.14409,3.31892-3.59716,0-2.3111-.984-3.48324-2.92794-3.48324m10.17986,17.062a.97665.97665,0,0,1-.974.97918h-1.491c-3.093,0-4.45-.7994-5.1859-3.06854a27.181,27.181,0,0,1-.7-2.93754c-.074-.37079-.142-.71231-.209-1.00528-.295-1.33-.912-1.87054-2.129-1.87054h-.888v5.77823c0,1.056,0,1.14214,1.327,1.226a.94021.94021,0,0,1-.06,1.87835h-7.79989a.94021.94021,0,0,1-.06-1.87835c1.325-.08489,1.325-.16978,1.325-1.226V113.483c0-1.055,0-1.14213-1.325-1.22605a.9402.9402,0,0,1,.06-1.87737h9.15686c2.64,0,4.43592.49252,5.655,1.55074a4.909,4.909,0,0,1,1.535,3.84476,4.98191,4.98191,0,0,1-3.776,4.71807c2.02.95917,2.5,2.69774,2.846,4.68318a5.34142,5.34142,0,0,0,1.261,2.9695,1.75779,1.75779,0,0,0,.73.44056.96924.96924,0,0,1,.7.93332"/><path id="Pfad_3066" data-name="Pfad 3066" d="M186.57953,124.71137l-.5,4.72514a1.14446,1.14446,0,0,1-1.145,1.06115H170.39573a.7727.7727,0,0,1-.772-.77135v-.33078a.76964.76964,0,0,1,.732-.76939c1.477-.08,1.477-.14685,1.477-1.2341V113.48031c0-1.087,0-1.15409-1.477-1.2341a.77164.77164,0,0,1-.732-.76939V111.146a.7727.7727,0,0,1,.772-.77135h13.93982a1.14758,1.14758,0,0,1,1.14695,1.12311l.449,4.02162v.0439a.77172.77172,0,0,1-.772.77135,1.354,1.354,0,0,1-1.273-.91137c-.792-2.27719-1.754-2.97047-4.11293-2.97047h-2.09994c-.549,0-.581,0-.581.60961v5.77433h2.25894c1.415,0,1.708-.24687,2.081-1.75662a.98908.98908,0,0,1,1.95.23175v5.29572a.98907.98907,0,0,1-1.95.23272c-.373-1.50975-.665-1.75662-2.081-1.75662h-2.25894v5.6953c0,1.308.3,1.64075,3.041,1.64075,2.84194,0,3.55793-1.16214,4.418-3.63107a1.32611,1.32611,0,0,1,1.251-.89331.77079.77079,0,0,1,.77342.76792c0,.01659-.00042.03293-.00146.04952"/><path id="Pfad_3067" data-name="Pfad 3067" d="M211.27417,111.32728a.96437.96437,0,0,1-.818.96918l-.5.071c-.327.042-.583.152-.666,1.12115a38.295,38.295,0,0,0-.138,4.3224v11.53965a1.14849,1.14849,0,0,1-1.149,1.146h-1.914a1.136,1.136,0,0,1-.964-.52667c-2.012-3.13733-4.16492-6.33174-6.24992-9.42028-1.08-1.59879-2.193-3.24832-3.283-4.88493v7.39387a38.45221,38.45221,0,0,0,.14,4.31337c.086.99918.389,1.0992.806,1.128l1.231.10782a.76966.76966,0,0,1,.7.76939v.34372a.77269.77269,0,0,1-.772.77134h-5.81694a.94255.94255,0,0,1-.942-.93917v-.04586a.94652.94652,0,0,1,.81-.93113l.511-.072c.329-.04391.583-.15393.666-1.12116a38.15252,38.15252,0,0,0,.14-4.32337v-9.57909c0-1.05724,0-1.14408-1.327-1.22605a.94121.94121,0,0,1,.058-1.88054h5.6779a1.14031,1.14031,0,0,1,.962.52252c1.591,2.45088,3.31093,4.93908,4.97491,7.34605,1.06,1.53683,2.153,3.1144,3.213,4.68416v-5.11886a39.29608,39.29608,0,0,0-.136-4.3124c-.088-.99918-.391-1.0992-.81-1.129l-1.064-.09294a.95217.95217,0,0,1,.084-1.89835h5.6259a.95251.95251,0,0,1,.952.95113"/><path id="Pfad_3068" data-name="Pfad 3068" d="M229.77894,124.54228c0,1.89835-.75,6.30588-7.66488,6.37589-1.906,0-4.48791-.41762-6.017-1.59269a1.15681,1.15681,0,0,1-.445-.81745l-.341-4.06967a.96436.96436,0,0,1,.87829-1.04358q.04174-.00366.08368-.00366a.975.975,0,0,1,.914.65254c1.044,2.95657,2.888,4.79613,4.81293,4.79613a2.49843,2.49843,0,0,0,2.788-2.65383c0-1.57879-1.07-2.72971-3.47194-3.733-2.03-.8533-5.80693-2.43892-5.80693-6.37077,0-3.83281,2.752-6.12293,7.35592-6.12293a11.46847,11.46847,0,0,1,4.99993,1.04114,1.14786,1.14786,0,0,1,.625.98114l.744,3.72986a.51071.51071,0,0,1,.008.07782.77263.77263,0,0,1-.77209.77329H228.468a1.22691,1.22691,0,0,1-1.17-.86941,4.846,4.846,0,0,0-4.45794-3.655,2.34809,2.34809,0,0,0-2.511,2.4521c0,1.76662,1.856,2.67189,3.921,3.51519,2.674,1.11506,5.53,2.63286,5.53,6.53861"/><path id="Pfad_3069" data-name="Pfad 3069" d="M314.10584,38.248a5.8751,5.8751,0,0,1-1.8-4.1836V20.16584a5.80994,5.80994,0,0,1,1.8-4.15164,7.07375,7.07375,0,0,1,4.7-1.72662,6.87985,6.87985,0,0,1,4.624,1.72662,5.56639,5.56639,0,0,1,1.836,4.15164v2.69774h-3.854V20.16584a2.62707,2.62707,0,0,0-5.24694,0V34.06439a2.62707,2.62707,0,0,0,5.24694,0V28.56888h-2.864v-3.1483h6.7189v8.64381a5.62738,5.62738,0,0,1-1.836,4.18457,7.01918,7.01918,0,0,1-4.624,1.69857,7.21727,7.21727,0,0,1-4.69995-1.69857"/><path id="Pfad_3070" data-name="Pfad 3070" d="M337.85647,30.98691l-1.982-11.48061-1.98,11.48061Zm1.469,8.47111-.918-5.32573h-5.06494l-.882,5.32573h-3.88892l4.51392-24.68784h5.57994L343.17934,39.458Z"/><path id="Pfad_3071" data-name="Pfad 3071" d="M347.95536,38.248a5.63494,5.63494,0,0,1-1.836-4.1836V31.40153h3.85694v2.66189a2.62806,2.62806,0,0,0,5.24993,0v-.89917c0-2.21328-1.762-3.45811-3.78-4.913-.3-.172-.551-.34469-.846-.5535a13.60557,13.60557,0,0,1-2.716-2.14229,6.43278,6.43278,0,0,1-1.762-4.49633V20.16a5.57442,5.57442,0,0,1,1.836-4.15164,6.90307,6.90307,0,0,1,4.65991-1.72661,6.97449,6.97449,0,0,1,4.66193,1.72661,5.668,5.668,0,0,1,1.8,4.15164v2.69775h-3.853V20.16a2.62806,2.62806,0,0,0-5.24993,0v.89917c0,1.87054,1.357,2.90558,3.59992,4.49633a6.35635,6.35635,0,0,1,.808.55252,15.42337,15.42337,0,0,1,2.9,2.283,7.20489,7.20489,0,0,1,1.8,4.7732v.89917a5.73208,5.73208,0,0,1-1.8,4.18457,7.11567,7.11567,0,0,1-4.66192,1.69856,7.03959,7.03959,0,0,1-4.65991-1.69856"/><path id="Pfad_3072" data-name="Pfad 3072" d="M366.20112,39.459V17.91653h-4.55194V14.77018H374.641v3.14635h-4.58295V39.459Z"/><path id="Pfad_3073" data-name="Pfad 3073" d="M321.03173,69.31561V58.933h-5.06695V69.31561h-3.72194V45.47815h3.72194V55.89566h5.06695V45.47815h3.71992V69.31561Z"/><path id="Pfad_3074" data-name="Pfad 3074" d="M336.98154,61.1382l-1.914-11.084-1.914,11.084Zm1.417,8.17936-.886-5.14082h-4.88891l-.852,5.14082h-3.75593l4.35993-23.83746h5.38591l4.35791,23.83746Z"/><path id="Pfad_3075" data-name="Pfad 3075" d="M346.76939,68.14835a5.53514,5.53514,0,0,1-1.738-4.0387V45.4818h3.72193V64.10965a2.53708,2.53708,0,0,0,5.06695,0V45.4818h3.71992V64.10965a5.54142,5.54142,0,0,1-1.736,4.0387,7.05455,7.05455,0,0,1-9.03589,0"/><path id="Pfad_3076" data-name="Pfad 3076" d="M362.9302,68.14845a5.44266,5.44266,0,0,1-1.772-4.03869v-2.5709h3.72194v2.5709a2.53707,2.53707,0,0,0,5.06694,0v-.86721c0-2.1362-1.7-3.33931-3.65-4.74-.285-.16588-.531-.33468-.816-.53447a13.11132,13.11132,0,0,1-2.622-2.07033,6.20764,6.20764,0,0,1-1.7-4.3385v-.8694a5.37051,5.37051,0,0,1,1.772-4.00577,6.89537,6.89537,0,0,1,8.99988,0,5.4688,5.4688,0,0,1,1.736,4.00577v2.60382h-3.71993V50.68982a2.53707,2.53707,0,0,0-5.06694,0v.8694c0,1.79858,1.31095,2.80362,3.471,4.3385a6.41873,6.41873,0,0,1,.78.53447,15.01516,15.01516,0,0,1,2.8,2.20523,6.95657,6.95657,0,0,1,1.736,4.60635V64.111a5.54192,5.54192,0,0,1-1.736,4.03869,6.87206,6.87206,0,0,1-4.49994,1.6366,6.80315,6.80315,0,0,1-4.49994-1.6366"/><path id="Pfad_3077" data-name="Pfad 3077" d="M355.29226,131.31792a53.051,53.051,0,0,0,7.84486-11.49769A107.76339,107.76339,0,0,0,375,83.0373l-27.17761.03586c3.38893,13.92563,4.48193,30.89468-2.31894,42.41432a40.99411,40.99411,0,0,1-9.7489,11.21593,29.002,29.002,0,1,0-50.1853.78037c-13.84881-8.5499-23.90666-24.13726-24.55564-41.34122l-3.64393-.07782C257.36968,126.90966,280.46239,152,308.844,152h3.52v-.03293a55.62469,55.62469,0,0,0,17.43574-3.44323A52.9907,52.9907,0,0,0,355.29226,131.31792ZM289.94712,122.638a20.47172,20.47172,0,1,1,20.47275,20.45741A20.46368,20.46368,0,0,1,289.94712,122.638Z"/></g></svg>